{
	"patcher" : 	{
		"fileversion" : 1,
		"appversion" : 		{
			"major" : 8,
			"minor" : 1,
			"revision" : 10,
			"architecture" : "x64",
			"modernui" : 1
		}
,
		"classnamespace" : "box",
		"rect" : [ 34.0, 87.0, 1372.0, 732.0 ],
		"bglocked" : 0,
		"openinpresentation" : 0,
		"default_fontsize" : 12.0,
		"default_fontface" : 0,
		"default_fontname" : "Arial",
		"gridonopen" : 1,
		"gridsize" : [ 15.0, 15.0 ],
		"gridsnaponopen" : 1,
		"objectsnaponopen" : 1,
		"statusbarvisible" : 2,
		"toolbarvisible" : 1,
		"lefttoolbarpinned" : 0,
		"toptoolbarpinned" : 0,
		"righttoolbarpinned" : 0,
		"bottomtoolbarpinned" : 0,
		"toolbars_unpinned_last_save" : 0,
		"tallnewobj" : 0,
		"boxanimatetime" : 200,
		"enablehscroll" : 1,
		"enablevscroll" : 1,
		"devicewidth" : 0.0,
		"description" : "",
		"digest" : "",
		"tags" : "",
		"style" : "",
		"subpatcher_template" : "",
		"assistshowspatchername" : 0,
		"boxes" : [ 			{
				"box" : 				{
					"fontface" : 1,
					"id" : "obj-8",
					"maxclass" : "comment",
					"numinlets" : 1,
					"numoutlets" : 0,
					"patching_rect" : [ 1178.0, 172.0, 271.0, 20.0 ],
					"text" : "LOAD \"LF_Deriv.wav\" excitation source here!"
				}

			}
, 			{
				"box" : 				{
					"id" : "obj-52",
					"maxclass" : "toggle",
					"numinlets" : 1,
					"numoutlets" : 1,
					"outlettype" : [ "int" ],
					"parameter_enable" : 0,
					"patching_rect" : [ 495.0, 1019.5, 24.0, 24.0 ]
				}

			}
, 			{
				"box" : 				{
					"fontname" : "Arial",
					"fontsize" : 13.0,
					"id" : "obj-10",
					"maxclass" : "message",
					"numinlets" : 2,
					"numoutlets" : 1,
					"outlettype" : [ "" ],
					"patching_rect" : [ 495.0, 1055.5, 68.0, 23.0 ],
					"text" : "logfreq $1"
				}

			}
, 			{
				"box" : 				{
					"fontface" : 0,
					"fontname" : "Arial",
					"fontsize" : 13.0,
					"id" : "obj-53",
					"items" : [ "Horizontal", ",", "Vertical" ],
					"maxclass" : "umenu",
					"numinlets" : 1,
					"numoutlets" : 3,
					"outlettype" : [ "int", "", "" ],
					"parameter_enable" : 0,
					"patching_rect" : [ 300.5, 1019.5, 102.0, 23.0 ]
				}

			}
, 			{
				"box" : 				{
					"fontname" : "Arial",
					"fontsize" : 13.0,
					"id" : "obj-24",
					"maxclass" : "message",
					"numinlets" : 2,
					"numoutlets" : 1,
					"outlettype" : [ "" ],
					"patching_rect" : [ 300.5, 1055.5, 90.0, 23.0 ],
					"text" : "orientation $1"
				}

			}
, 			{
				"box" : 				{
					"fontname" : "Arial",
					"fontsize" : 13.0,
					"format" : 6,
					"id" : "obj-28",
					"maxclass" : "flonum",
					"maximum" : 2.0,
					"minimum" : 0.0,
					"numinlets" : 1,
					"numoutlets" : 2,
					"outlettype" : [ "", "bang" ],
					"parameter_enable" : 0,
					"patching_rect" : [ 416.5, 1019.5, 54.0, 23.0 ],
					"triscale" : 0.9
				}

			}
, 			{
				"box" : 				{
					"fontname" : "Arial",
					"fontsize" : 13.0,
					"id" : "obj-29",
					"maxclass" : "message",
					"numinlets" : 2,
					"numoutlets" : 1,
					"outlettype" : [ "" ],
					"patching_rect" : [ 416.5, 1055.5, 61.0, 23.0 ],
					"text" : "range $1"
				}

			}
, 			{
				"box" : 				{
					"id" : "obj-31",
					"logfreq" : 1,
					"maxclass" : "spectroscope~",
					"monochrome" : 0,
					"numinlets" : 2,
					"numoutlets" : 1,
					"outlettype" : [ "" ],
					"patching_rect" : [ 300.5, 1125.5, 300.0, 100.0 ],
					"presentation" : 1,
					"presentation_rect" : [ 302.5, 297.5, 384.0, 114.0 ],
					"range" : [ 0.0, 1.0 ]
				}

			}
, 			{
				"box" : 				{
					"id" : "obj-33",
					"local" : 1,
					"maxclass" : "ezdac~",
					"numinlets" : 2,
					"numoutlets" : 0,
					"patching_rect" : [ 246.5, 1125.5, 44.0, 44.0 ],
					"prototypename" : "helpfile"
				}

			}
, 			{
				"box" : 				{
					"id" : "obj-21",
					"maxclass" : "button",
					"numinlets" : 1,
					"numoutlets" : 1,
					"outlettype" : [ "bang" ],
					"parameter_enable" : 0,
					"patching_rect" : [ 1038.5, 91.5, 24.0, 24.0 ]
				}

			}
, 			{
				"box" : 				{
					"id" : "obj-20",
					"maxclass" : "button",
					"numinlets" : 1,
					"numoutlets" : 1,
					"outlettype" : [ "bang" ],
					"parameter_enable" : 0,
					"patching_rect" : [ 904.333495999999968, 91.5, 24.0, 24.0 ]
				}

			}
, 			{
				"box" : 				{
					"id" : "obj-19",
					"maxclass" : "button",
					"numinlets" : 1,
					"numoutlets" : 1,
					"outlettype" : [ "bang" ],
					"parameter_enable" : 0,
					"patching_rect" : [ 770.500000000000227, 91.5, 24.0, 24.0 ]
				}

			}
, 			{
				"box" : 				{
					"id" : "obj-18",
					"maxclass" : "button",
					"numinlets" : 1,
					"numoutlets" : 1,
					"outlettype" : [ "bang" ],
					"parameter_enable" : 0,
					"patching_rect" : [ 634.083496000000196, 91.5, 24.0, 24.0 ]
				}

			}
, 			{
				"box" : 				{
					"id" : "obj-7",
					"maxclass" : "button",
					"numinlets" : 1,
					"numoutlets" : 1,
					"outlettype" : [ "bang" ],
					"parameter_enable" : 0,
					"patching_rect" : [ 496.000488000000132, 91.5, 24.0, 24.0 ]
				}

			}
, 			{
				"box" : 				{
					"id" : "obj-14",
					"maxclass" : "button",
					"numinlets" : 1,
					"numoutlets" : 1,
					"outlettype" : [ "bang" ],
					"parameter_enable" : 0,
					"patching_rect" : [ 361.333496000000196, 91.5, 24.0, 24.0 ]
				}

			}
, 			{
				"box" : 				{
					"id" : "obj-6",
					"maxclass" : "button",
					"numinlets" : 1,
					"numoutlets" : 1,
					"outlettype" : [ "bang" ],
					"parameter_enable" : 0,
					"patching_rect" : [ 226.333496000000196, 91.5, 24.0, 24.0 ]
				}

			}
, 			{
				"box" : 				{
					"fontsize" : 20.0,
					"id" : "obj-5",
					"maxclass" : "textbutton",
					"numinlets" : 1,
					"numoutlets" : 3,
					"outlettype" : [ "", "", "int" ],
					"parameter_enable" : 0,
					"patching_rect" : [ 158.833496000000196, 42.5, 100.0, 20.0 ],
					"presentation" : 1,
					"presentation_rect" : [ 400.5, 86.5, 89.0, 92.0 ],
					"text" : "ɪ",
					"texton" : "ɪ"
				}

			}
, 			{
				"box" : 				{
					"id" : "obj-4",
					"maxclass" : "message",
					"numinlets" : 2,
					"numoutlets" : 1,
					"outlettype" : [ "" ],
					"patching_rect" : [ 265.333496000000196, 151.0, 37.0, 22.0 ],
					"text" : "2550"
				}

			}
, 			{
				"box" : 				{
					"id" : "obj-3",
					"maxclass" : "message",
					"numinlets" : 2,
					"numoutlets" : 1,
					"outlettype" : [ "" ],
					"patching_rect" : [ 226.333496000000196, 151.0, 37.0, 22.0 ],
					"text" : "1990"
				}

			}
, 			{
				"box" : 				{
					"id" : "obj-2",
					"maxclass" : "message",
					"numinlets" : 2,
					"numoutlets" : 1,
					"outlettype" : [ "" ],
					"patching_rect" : [ 193.333496000000196, 151.0, 31.0, 22.0 ],
					"text" : "390"
				}

			}
, 			{
				"box" : 				{
					"fontface" : 1,
					"id" : "obj-1",
					"maxclass" : "comment",
					"numinlets" : 1,
					"numoutlets" : 0,
					"patching_rect" : [ 158.833496000000196, 11.5, 82.0, 20.0 ],
					"text" : "\"B i t/B u sy\"",
					"textjustification" : 1
				}

			}
, 			{
				"box" : 				{
					"id" : "obj-155",
					"maxclass" : "newobj",
					"numinlets" : 1,
					"numoutlets" : 1,
					"outlettype" : [ "bang" ],
					"patching_rect" : [ 14.916504000000259, 639.0, 60.0, 22.0 ],
					"text" : "loadbang"
				}

			}
, 			{
				"box" : 				{
					"id" : "obj-154",
					"maxclass" : "button",
					"numinlets" : 1,
					"numoutlets" : 1,
					"outlettype" : [ "bang" ],
					"parameter_enable" : 0,
					"patching_rect" : [ 65.0, 91.5, 24.0, 24.0 ]
				}

			}
, 			{
				"box" : 				{
					"fontface" : 1,
					"id" : "obj-123",
					"maxclass" : "comment",
					"numinlets" : 1,
					"numoutlets" : 0,
					"patching_rect" : [ 6.333495999999968, 11.5, 54.0, 20.0 ],
					"text" : "\"B ea t\"",
					"textjustification" : 1
				}

			}
, 			{
				"box" : 				{
					"id" : "obj-142",
					"lastchannelcount" : 0,
					"maxclass" : "live.gain~",
					"numinlets" : 2,
					"numoutlets" : 5,
					"outlettype" : [ "signal", "signal", "", "float", "list" ],
					"parameter_enable" : 1,
					"patching_rect" : [ 246.5, 956.0, 48.0, 136.0 ],
					"saved_attribute_attributes" : 					{
						"valueof" : 						{
							"parameter_initial" : [ 0.0 ],
							"parameter_longname" : "live.gain~[3]",
							"parameter_mmax" : 6.0,
							"parameter_mmin" : -70.0,
							"parameter_shortname" : "live.gain~",
							"parameter_type" : 0,
							"parameter_unitstyle" : 4
						}

					}
,
					"varname" : "live.gain~[9]"
				}

			}
, 			{
				"box" : 				{
					"fontsize" : 20.0,
					"id" : "obj-145",
					"maxclass" : "textbutton",
					"numinlets" : 1,
					"numoutlets" : 3,
					"outlettype" : [ "", "", "int" ],
					"parameter_enable" : 0,
					"patching_rect" : [ 6.333495999999968, 41.5, 100.0, 20.0 ],
					"presentation" : 1,
					"presentation_rect" : [ 302.5, 86.5, 89.0, 92.0 ],
					"text" : "i",
					"texton" : "i"
				}

			}
, 			{
				"box" : 				{
					"id" : "obj-156",
					"maxclass" : "message",
					"numinlets" : 2,
					"numoutlets" : 1,
					"outlettype" : [ "" ],
					"patching_rect" : [ 178.250000000000227, 696.0, 29.5, 22.0 ],
					"text" : "50"
				}

			}
, 			{
				"box" : 				{
					"id" : "obj-158",
					"maxclass" : "message",
					"numinlets" : 2,
					"numoutlets" : 1,
					"outlettype" : [ "" ],
					"patching_rect" : [ 14.916504000000259, 695.0, 29.5, 22.0 ],
					"text" : "1"
				}

			}
, 			{
				"box" : 				{
					"id" : "obj-163",
					"maxclass" : "newobj",
					"numinlets" : 2,
					"numoutlets" : 1,
					"outlettype" : [ "signal" ],
					"patching_rect" : [ 246.5, 899.5, 31.0, 22.0 ],
					"text" : "/~ 3"
				}

			}
, 			{
				"box" : 				{
					"id" : "obj-164",
					"maxclass" : "message",
					"numinlets" : 2,
					"numoutlets" : 1,
					"outlettype" : [ "" ],
					"patching_rect" : [ 104.0, 151.0, 37.0, 22.0 ],
					"text" : "3010"
				}

			}
, 			{
				"box" : 				{
					"id" : "obj-165",
					"maxclass" : "message",
					"numinlets" : 2,
					"numoutlets" : 1,
					"outlettype" : [ "" ],
					"patching_rect" : [ 65.0, 151.0, 37.0, 22.0 ],
					"text" : "2290"
				}

			}
, 			{
				"box" : 				{
					"id" : "obj-166",
					"maxclass" : "message",
					"numinlets" : 2,
					"numoutlets" : 1,
					"outlettype" : [ "" ],
					"patching_rect" : [ 31.333495999999997, 151.0, 31.0, 22.0 ],
					"text" : "270"
				}

			}
, 			{
				"box" : 				{
					"id" : "obj-167",
					"maxclass" : "newobj",
					"numinlets" : 4,
					"numoutlets" : 1,
					"outlettype" : [ "signal" ],
					"patching_rect" : [ 638.0, 824.5, 50.5, 22.0 ],
					"text" : "reson~"
				}

			}
, 			{
				"box" : 				{
					"id" : "obj-168",
					"maxclass" : "newobj",
					"numinlets" : 4,
					"numoutlets" : 1,
					"outlettype" : [ "signal" ],
					"patching_rect" : [ 360.0, 824.5, 50.5, 22.0 ],
					"text" : "reson~"
				}

			}
, 			{
				"box" : 				{
					"id" : "obj-169",
					"maxclass" : "newobj",
					"numinlets" : 4,
					"numoutlets" : 1,
					"outlettype" : [ "signal" ],
					"patching_rect" : [ 121.0, 824.5, 50.0, 22.0 ],
					"text" : "reson~"
				}

			}
, 			{
				"box" : 				{
					"id" : "obj-197",
					"maxclass" : "number",
					"numinlets" : 1,
					"numoutlets" : 2,
					"outlettype" : [ "", "bang" ],
					"parameter_enable" : 0,
					"patching_rect" : [ 828.333495999999968, 628.0, 50.0, 22.0 ]
				}

			}
, 			{
				"box" : 				{
					"id" : "obj-207",
					"maxclass" : "newobj",
					"numinlets" : 1,
					"numoutlets" : 3,
					"outlettype" : [ "", "int", "int" ],
					"patching_rect" : [ 932.833495999999968, 735.0, 50.0, 22.0 ],
					"text" : "change"
				}

			}
, 			{
				"box" : 				{
					"id" : "obj-208",
					"maxclass" : "message",
					"numinlets" : 2,
					"numoutlets" : 1,
					"outlettype" : [ "" ],
					"patching_rect" : [ 1072.500000000000227, 833.5, 29.5, 22.0 ],
					"text" : "0"
				}

			}
, 			{
				"box" : 				{
					"id" : "obj-209",
					"maxclass" : "toggle",
					"numinlets" : 1,
					"numoutlets" : 1,
					"outlettype" : [ "int" ],
					"parameter_enable" : 0,
					"patching_rect" : [ 1041.500000000000227, 871.5, 24.0, 24.0 ]
				}

			}
, 			{
				"box" : 				{
					"id" : "obj-210",
					"maxclass" : "newobj",
					"numinlets" : 2,
					"numoutlets" : 1,
					"outlettype" : [ "signal" ],
					"patching_rect" : [ 932.833495999999968, 599.0, 75.0, 22.0 ],
					"text" : "round~ 0.05"
				}

			}
, 			{
				"box" : 				{
					"id" : "obj-211",
					"maxclass" : "number",
					"numinlets" : 1,
					"numoutlets" : 2,
					"outlettype" : [ "", "bang" ],
					"parameter_enable" : 0,
					"patching_rect" : [ 1000.833495999999968, 928.5, 50.0, 22.0 ]
				}

			}
, 			{
				"box" : 				{
					"id" : "obj-212",
					"maxclass" : "newobj",
					"numinlets" : 1,
					"numoutlets" : 1,
					"outlettype" : [ "bang" ],
					"patching_rect" : [ 698.0, 574.0, 60.0, 22.0 ],
					"text" : "loadbang"
				}

			}
, 			{
				"box" : 				{
					"id" : "obj-213",
					"maxclass" : "newobj",
					"numinlets" : 2,
					"numoutlets" : 2,
					"outlettype" : [ "bang", "" ],
					"patching_rect" : [ 932.833495999999968, 772.5, 36.0, 22.0 ],
					"text" : "sel 1"
				}

			}
, 			{
				"box" : 				{
					"id" : "obj-214",
					"maxclass" : "newobj",
					"numinlets" : 2,
					"numoutlets" : 1,
					"outlettype" : [ "int" ],
					"patching_rect" : [ 932.833495999999968, 871.5, 34.0, 22.0 ],
					"text" : "< 30"
				}

			}
, 			{
				"box" : 				{
					"id" : "obj-215",
					"maxclass" : "newobj",
					"numinlets" : 5,
					"numoutlets" : 4,
					"outlettype" : [ "int", "", "", "int" ],
					"patching_rect" : [ 932.833495999999968, 810.5, 61.0, 22.0 ],
					"text" : "counter"
				}

			}
, 			{
				"box" : 				{
					"id" : "obj-216",
					"maxclass" : "newobj",
					"numinlets" : 2,
					"numoutlets" : 1,
					"outlettype" : [ "int" ],
					"patching_rect" : [ 932.833495999999968, 677.0, 38.0, 22.0 ],
					"text" : "> 0.9"
				}

			}
, 			{
				"box" : 				{
					"id" : "obj-224",
					"maxclass" : "newobj",
					"numinlets" : 2,
					"numoutlets" : 1,
					"outlettype" : [ "float" ],
					"patching_rect" : [ 932.833495999999968, 639.0, 76.0, 22.0 ],
					"text" : "snapshot~ 1"
				}

			}
, 			{
				"box" : 				{
					"id" : "obj-252",
					"maxclass" : "newobj",
					"numinlets" : 1,
					"numoutlets" : 1,
					"outlettype" : [ "signal" ],
					"patching_rect" : [ 932.833495999999968, 928.5, 33.0, 22.0 ],
					"text" : "sig~"
				}

			}
, 			{
				"box" : 				{
					"fontname" : "Arial",
					"fontsize" : 13.0,
					"id" : "obj-253",
					"maxclass" : "message",
					"numinlets" : 2,
					"numoutlets" : 1,
					"outlettype" : [ "" ],
					"patching_rect" : [ 609.0, 628.0, 46.0, 23.0 ],
					"text" : "loop 1"
				}

			}
, 			{
				"box" : 				{
					"fontname" : "Arial",
					"fontsize" : 13.0,
					"id" : "obj-254",
					"maxclass" : "message",
					"numinlets" : 2,
					"numoutlets" : 1,
					"outlettype" : [ "" ],
					"patching_rect" : [ 779.0, 628.0, 32.5, 23.0 ],
					"text" : "0"
				}

			}
, 			{
				"box" : 				{
					"fontname" : "Arial",
					"fontsize" : 13.0,
					"id" : "obj-255",
					"maxclass" : "newobj",
					"numinlets" : 3,
					"numoutlets" : 2,
					"outlettype" : [ "signal", "signal" ],
					"patching_rect" : [ 698.0, 692.0, 149.0, 23.0 ],
					"saved_object_attributes" : 					{
						"basictuning" : 440,
						"followglobaltempo" : 0,
						"formantcorrection" : 0,
						"loopend" : [ 50.0, "ms" ],
						"loopstart" : [ 0.0, "ms" ],
						"mode" : "basic",
						"originallength" : [ 11.210884, "ticks" ],
						"originaltempo" : 119.99999841558801,
						"phase" : [ 0.0, "ticks" ],
						"pitchcorrection" : 0,
						"quality" : "basic",
						"timestretch" : [ 0 ]
					}
,
					"text" : "groove~ LF_deriv.wav 1"
				}

			}
, 			{
				"box" : 				{
					"fontface" : 1,
					"id" : "obj-871",
					"linecount" : 3,
					"maxclass" : "comment",
					"numinlets" : 1,
					"numoutlets" : 0,
					"patching_rect" : [ 922.000000000000227, 971.0, 180.0, 47.0 ],
					"text" : "PATCH SEQUENCE TO LOOP THE BUFFER A CERTAIN NUMBER OF TIMES. "
				}

			}
, 			{
				"box" : 				{
					"fontface" : 1,
					"id" : "obj-865",
					"maxclass" : "comment",
					"numinlets" : 1,
					"numoutlets" : 0,
					"patching_rect" : [ 209.833496000000196, 697.0, 70.0, 20.0 ],
					"text" : "Q FACTOR"
				}

			}
, 			{
				"box" : 				{
					"fontface" : 1,
					"id" : "obj-863",
					"maxclass" : "comment",
					"numinlets" : 1,
					"numoutlets" : 0,
					"patching_rect" : [ 48.500000000000227, 695.0, 38.0, 20.0 ],
					"text" : "GAIN"
				}

			}
, 			{
				"box" : 				{
					"fontface" : 1,
					"fontsize" : 48.0,
					"id" : "obj-859",
					"maxclass" : "comment",
					"numinlets" : 1,
					"numoutlets" : 0,
					"patching_rect" : [ 1138.0, 406.5, 585.0, 60.0 ],
					"text" : "MISC GUI MATERIALS:"
				}

			}
, 			{
				"box" : 				{
					"fontface" : 1,
					"fontsize" : 64.0,
					"id" : "obj-857",
					"maxclass" : "comment",
					"numinlets" : 1,
					"numoutlets" : 0,
					"patching_rect" : [ 1138.0, 11.5, 404.0, 78.0 ],
					"text" : "IMPORTANT:"
				}

			}
, 			{
				"box" : 				{
					"fontface" : 1,
					"id" : "obj-854",
					"linecount" : 2,
					"maxclass" : "comment",
					"numinlets" : 1,
					"numoutlets" : 0,
					"patching_rect" : [ 1138.0, 96.5, 413.0, 33.0 ],
					"text" : "WHEN RUNNING PATCH FROM A DIFFERENT MACHINE.\nBE SURE TO CHANGE THE FILE DIRECTORY IN THE 'read' MESSAGE."
				}

			}
, 			{
				"box" : 				{
					"fontface" : 1,
					"id" : "obj-852",
					"linecount" : 6,
					"maxclass" : "comment",
					"numinlets" : 1,
					"numoutlets" : 0,
					"patching_rect" : [ 1138.0, 236.0, 378.0, 87.0 ],
					"text" : "OR\nA SOMEWHAT SIMPLER OPTION:\nBE SURE TO LOAD\n\"LF_Deriv.wav\"\nINTO RELEVANT BUFFERS BEFORE RUNNING THE PATCH.\nBOTH FILES CAN BE FOUND WITHIN THE ENCLOSED FOLDER."
				}

			}
, 			{
				"box" : 				{
					"id" : "obj-846",
					"maxclass" : "newobj",
					"numinlets" : 1,
					"numoutlets" : 2,
					"outlettype" : [ "float", "bang" ],
					"patching_rect" : [ 1138.0, 368.0, 122.0, 22.0 ],
					"text" : "buffer~ LF_deriv.wav"
				}

			}
, 			{
				"box" : 				{
					"id" : "obj-847",
					"maxclass" : "message",
					"numinlets" : 2,
					"numoutlets" : 1,
					"outlettype" : [ "" ],
					"patching_rect" : [ 1138.0, 338.5, 35.0, 22.0 ],
					"text" : "read"
				}

			}
, 			{
				"box" : 				{
					"id" : "obj-625",
					"maxclass" : "newobj",
					"numinlets" : 1,
					"numoutlets" : 1,
					"outlettype" : [ "bang" ],
					"patching_rect" : [ 1138.0, 142.5, 60.0, 22.0 ],
					"text" : "loadbang"
				}

			}
, 			{
				"box" : 				{
					"id" : "obj-626",
					"maxclass" : "newobj",
					"numinlets" : 1,
					"numoutlets" : 2,
					"outlettype" : [ "float", "bang" ],
					"patching_rect" : [ 1138.0, 200.5, 122.0, 22.0 ],
					"text" : "buffer~ LF_deriv.wav"
				}

			}
, 			{
				"box" : 				{
					"id" : "obj-627",
					"maxclass" : "message",
					"numinlets" : 2,
					"numoutlets" : 1,
					"outlettype" : [ "" ],
					"patching_rect" : [ 1138.0, 171.0, 33.0, 22.0 ],
					"text" : "read"
				}

			}
, 			{
				"box" : 				{
					"fontface" : 3,
					"fontname" : "Arial Bold",
					"fontsize" : 24.0,
					"id" : "obj-565",
					"maxclass" : "comment",
					"numinlets" : 1,
					"numoutlets" : 0,
					"patching_rect" : [ 1144.0, 486.5, 419.0, 33.0 ],
					"presentation" : 1,
					"presentation_rect" : [ 283.75, 46.0, 424.5, 33.0 ],
					"text" : "VOWEL FORMANT SYNTHESISER:",
					"textcolor" : [ 0.862745, 0.870588, 0.878431, 1.0 ],
					"textjustification" : 1
				}

			}
, 			{
				"box" : 				{
					"fontface" : 1,
					"id" : "obj-132",
					"maxclass" : "comment",
					"numinlets" : 1,
					"numoutlets" : 0,
					"patching_rect" : [ 982.0, 11.5, 50.0, 20.0 ],
					"text" : "\"B u t\"",
					"textjustification" : 1
				}

			}
, 			{
				"box" : 				{
					"fontsize" : 20.0,
					"id" : "obj-430",
					"maxclass" : "textbutton",
					"numinlets" : 1,
					"numoutlets" : 3,
					"outlettype" : [ "", "", "int" ],
					"parameter_enable" : 0,
					"patching_rect" : [ 982.0, 42.5, 100.0, 20.0 ],
					"presentation" : 1,
					"presentation_rect" : [ 597.5, 192.0, 89.0, 92.0 ],
					"text" : "ʌ",
					"texton" : "ʌ"
				}

			}
, 			{
				"box" : 				{
					"id" : "obj-439",
					"maxclass" : "message",
					"numinlets" : 2,
					"numoutlets" : 1,
					"outlettype" : [ "" ],
					"patching_rect" : [ 1076.5, 151.0, 37.0, 22.0 ],
					"text" : "2410"
				}

			}
, 			{
				"box" : 				{
					"id" : "obj-440",
					"maxclass" : "message",
					"numinlets" : 2,
					"numoutlets" : 1,
					"outlettype" : [ "" ],
					"patching_rect" : [ 1038.5, 151.0, 36.0, 22.0 ],
					"text" : "1190"
				}

			}
, 			{
				"box" : 				{
					"id" : "obj-441",
					"maxclass" : "message",
					"numinlets" : 2,
					"numoutlets" : 1,
					"outlettype" : [ "" ],
					"patching_rect" : [ 1005.5, 151.0, 31.0, 22.0 ],
					"text" : "640"
				}

			}
, 			{
				"box" : 				{
					"fontface" : 1,
					"id" : "obj-461",
					"maxclass" : "comment",
					"numinlets" : 1,
					"numoutlets" : 0,
					"patching_rect" : [ 845.833495999999968, 11.5, 55.0, 20.0 ],
					"text" : "\"B oo t\"",
					"textjustification" : 1
				}

			}
, 			{
				"box" : 				{
					"fontsize" : 20.0,
					"id" : "obj-464",
					"maxclass" : "textbutton",
					"numinlets" : 1,
					"numoutlets" : 3,
					"outlettype" : [ "", "", "int" ],
					"parameter_enable" : 0,
					"patching_rect" : [ 845.833495999999968, 42.5, 100.0, 20.0 ],
					"presentation" : 1,
					"presentation_rect" : [ 499.5, 192.0, 89.0, 92.0 ],
					"text" : "u",
					"texton" : "u"
				}

			}
, 			{
				"box" : 				{
					"id" : "obj-473",
					"maxclass" : "message",
					"numinlets" : 2,
					"numoutlets" : 1,
					"outlettype" : [ "" ],
					"patching_rect" : [ 937.333495999999968, 151.0, 37.0, 22.0 ],
					"text" : "2240"
				}

			}
, 			{
				"box" : 				{
					"id" : "obj-474",
					"maxclass" : "message",
					"numinlets" : 2,
					"numoutlets" : 1,
					"outlettype" : [ "" ],
					"patching_rect" : [ 904.333495999999968, 151.0, 31.0, 22.0 ],
					"text" : "870"
				}

			}
, 			{
				"box" : 				{
					"id" : "obj-475",
					"maxclass" : "message",
					"numinlets" : 2,
					"numoutlets" : 1,
					"outlettype" : [ "" ],
					"patching_rect" : [ 869.833495999999968, 151.0, 31.0, 22.0 ],
					"text" : "300"
				}

			}
, 			{
				"box" : 				{
					"fontface" : 1,
					"id" : "obj-495",
					"maxclass" : "comment",
					"numinlets" : 1,
					"numoutlets" : 0,
					"patching_rect" : [ 712.000000000000227, 11.5, 82.0, 20.0 ],
					"text" : "\"C au ght\"",
					"textjustification" : 1
				}

			}
, 			{
				"box" : 				{
					"fontsize" : 20.0,
					"id" : "obj-498",
					"maxclass" : "textbutton",
					"numinlets" : 1,
					"numoutlets" : 3,
					"outlettype" : [ "", "", "int" ],
					"parameter_enable" : 0,
					"patching_rect" : [ 712.000000000000227, 42.5, 100.0, 20.0 ],
					"presentation" : 1,
					"presentation_rect" : [ 400.5, 192.0, 89.0, 92.0 ],
					"text" : "ɔ",
					"texton" : "ɔ"
				}

			}
, 			{
				"box" : 				{
					"id" : "obj-507",
					"maxclass" : "message",
					"numinlets" : 2,
					"numoutlets" : 1,
					"outlettype" : [ "" ],
					"patching_rect" : [ 803.500000000000227, 151.0, 37.0, 22.0 ],
					"text" : "2410"
				}

			}
, 			{
				"box" : 				{
					"id" : "obj-508",
					"maxclass" : "message",
					"numinlets" : 2,
					"numoutlets" : 1,
					"outlettype" : [ "" ],
					"patching_rect" : [ 770.500000000000227, 151.0, 31.0, 22.0 ],
					"text" : "840"
				}

			}
, 			{
				"box" : 				{
					"id" : "obj-509",
					"maxclass" : "message",
					"numinlets" : 2,
					"numoutlets" : 1,
					"outlettype" : [ "" ],
					"patching_rect" : [ 737.500000000000227, 151.0, 31.0, 22.0 ],
					"text" : "570"
				}

			}
, 			{
				"box" : 				{
					"fontface" : 1,
					"id" : "obj-529",
					"maxclass" : "comment",
					"numinlets" : 1,
					"numoutlets" : 0,
					"patching_rect" : [ 574.833496000000196, 11.5, 52.5, 20.0 ],
					"text" : "\"S p a \"",
					"textjustification" : 1
				}

			}
, 			{
				"box" : 				{
					"fontsize" : 20.0,
					"id" : "obj-532",
					"maxclass" : "textbutton",
					"numinlets" : 1,
					"numoutlets" : 3,
					"outlettype" : [ "", "", "int" ],
					"parameter_enable" : 0,
					"patching_rect" : [ 574.833496000000196, 42.5, 100.0, 20.0 ],
					"presentation" : 1,
					"presentation_rect" : [ 302.5, 192.0, 89.0, 92.0 ],
					"text" : "ɑ",
					"texton" : "ɑ"
				}

			}
, 			{
				"box" : 				{
					"id" : "obj-541",
					"maxclass" : "message",
					"numinlets" : 2,
					"numoutlets" : 1,
					"outlettype" : [ "" ],
					"patching_rect" : [ 673.083496000000196, 151.0, 37.0, 22.0 ],
					"text" : "2440"
				}

			}
, 			{
				"box" : 				{
					"id" : "obj-542",
					"maxclass" : "message",
					"numinlets" : 2,
					"numoutlets" : 1,
					"outlettype" : [ "" ],
					"patching_rect" : [ 634.083496000000196, 151.0, 37.0, 22.0 ],
					"text" : "1090"
				}

			}
, 			{
				"box" : 				{
					"id" : "obj-543",
					"maxclass" : "message",
					"numinlets" : 2,
					"numoutlets" : 1,
					"outlettype" : [ "" ],
					"patching_rect" : [ 600.166992000000164, 151.0, 31.0, 22.0 ],
					"text" : "730"
				}

			}
, 			{
				"box" : 				{
					"fontface" : 1,
					"id" : "obj-361",
					"maxclass" : "comment",
					"numinlets" : 1,
					"numoutlets" : 0,
					"patching_rect" : [ 441.166992000000391, 11.5, 46.0, 20.0 ],
					"text" : "\"B a t\"",
					"textjustification" : 1
				}

			}
, 			{
				"box" : 				{
					"fontsize" : 20.0,
					"id" : "obj-364",
					"maxclass" : "textbutton",
					"numinlets" : 1,
					"numoutlets" : 3,
					"outlettype" : [ "", "", "int" ],
					"parameter_enable" : 0,
					"patching_rect" : [ 441.166992000000391, 42.5, 100.0, 20.0 ],
					"presentation" : 1,
					"presentation_rect" : [ 597.5, 86.5, 89.0, 92.0 ],
					"text" : "æ",
					"texton" : "æ"
				}

			}
, 			{
				"box" : 				{
					"id" : "obj-373",
					"maxclass" : "message",
					"numinlets" : 2,
					"numoutlets" : 1,
					"outlettype" : [ "" ],
					"patching_rect" : [ 535.000488000000132, 151.0, 37.0, 22.0 ],
					"text" : "2410"
				}

			}
, 			{
				"box" : 				{
					"id" : "obj-374",
					"maxclass" : "message",
					"numinlets" : 2,
					"numoutlets" : 1,
					"outlettype" : [ "" ],
					"patching_rect" : [ 496.000488000000132, 151.0, 37.0, 22.0 ],
					"text" : "1720"
				}

			}
, 			{
				"box" : 				{
					"id" : "obj-375",
					"maxclass" : "message",
					"numinlets" : 2,
					"numoutlets" : 1,
					"outlettype" : [ "" ],
					"patching_rect" : [ 463.000488000000132, 151.0, 31.0, 22.0 ],
					"text" : "660"
				}

			}
, 			{
				"box" : 				{
					"fontface" : 1,
					"id" : "obj-395",
					"maxclass" : "comment",
					"numinlets" : 1,
					"numoutlets" : 0,
					"patching_rect" : [ 307.333496000000196, 11.5, 46.0, 20.0 ],
					"text" : "\"B e t\"",
					"textjustification" : 1
				}

			}
, 			{
				"box" : 				{
					"fontsize" : 20.0,
					"id" : "obj-398",
					"maxclass" : "textbutton",
					"numinlets" : 1,
					"numoutlets" : 3,
					"outlettype" : [ "", "", "int" ],
					"parameter_enable" : 0,
					"patching_rect" : [ 307.333496000000196, 42.5, 100.0, 20.0 ],
					"presentation" : 1,
					"presentation_rect" : [ 499.5, 86.5, 89.0, 92.0 ],
					"text" : "ɛ",
					"texton" : "ɛ"
				}

			}
, 			{
				"box" : 				{
					"id" : "obj-407",
					"maxclass" : "message",
					"numinlets" : 2,
					"numoutlets" : 1,
					"outlettype" : [ "" ],
					"patching_rect" : [ 399.833496000000196, 151.0, 37.0, 22.0 ],
					"text" : "2480"
				}

			}
, 			{
				"box" : 				{
					"id" : "obj-408",
					"maxclass" : "message",
					"numinlets" : 2,
					"numoutlets" : 1,
					"outlettype" : [ "" ],
					"patching_rect" : [ 360.833496000000196, 151.0, 37.0, 22.0 ],
					"text" : "1840"
				}

			}
, 			{
				"box" : 				{
					"id" : "obj-409",
					"maxclass" : "message",
					"numinlets" : 2,
					"numoutlets" : 1,
					"outlettype" : [ "" ],
					"patching_rect" : [ 328.666992000000164, 151.0, 31.0, 22.0 ],
					"text" : "530"
				}

			}
, 			{
				"box" : 				{
					"angle" : 270.0,
					"grad1" : [ 0.65098, 0.666667, 0.662745, 1.0 ],
					"grad2" : [ 0.32549, 0.345098, 0.372549, 1.0 ],
					"id" : "obj-563",
					"maxclass" : "panel",
					"mode" : 1,
					"numinlets" : 1,
					"numoutlets" : 0,
					"patching_rect" : [ 1138.0, 481.5, 437.0, 49.0 ],
					"presentation" : 1,
					"presentation_rect" : [ 290.0, 32.0, 412.0, 393.0 ],
					"proportion" : 0.39
				}

			}
 ],
		"lines" : [ 			{
				"patchline" : 				{
					"destination" : [ "obj-31", 0 ],
					"midpoints" : [ 504.5, 1110.0, 310.0, 1110.0 ],
					"source" : [ "obj-10", 0 ]
				}

			}
, 			{
				"patchline" : 				{
					"destination" : [ "obj-407", 0 ],
					"midpoints" : [ 370.833496000000196, 136.5, 409.333496000000196, 136.5 ],
					"order" : 0,
					"source" : [ "obj-14", 0 ]
				}

			}
, 			{
				"patchline" : 				{
					"destination" : [ "obj-408", 0 ],
					"midpoints" : [ 370.833496000000196, 155.5, 370.333496000000196, 155.5 ],
					"order" : 1,
					"source" : [ "obj-14", 0 ]
				}

			}
, 			{
				"patchline" : 				{
					"destination" : [ "obj-409", 0 ],
					"midpoints" : [ 370.833496000000196, 136.5, 338.166992000000164, 136.5 ],
					"order" : 2,
					"source" : [ "obj-14", 0 ]
				}

			}
, 			{
				"patchline" : 				{
					"destination" : [ "obj-31", 0 ],
					"midpoints" : [ 256.0, 1108.25, 310.0, 1108.25 ],
					"order" : 0,
					"source" : [ "obj-142", 0 ]
				}

			}
, 			{
				"patchline" : 				{
					"destination" : [ "obj-33", 1 ],
					"source" : [ "obj-142", 1 ]
				}

			}
, 			{
				"patchline" : 				{
					"destination" : [ "obj-33", 0 ],
					"order" : 1,
					"source" : [ "obj-142", 0 ]
				}

			}
, 			{
				"patchline" : 				{
					"destination" : [ "obj-154", 0 ],
					"midpoints" : [ 15.833495999999968, 76.0, 74.5, 76.0 ],
					"order" : 1,
					"source" : [ "obj-145", 0 ]
				}

			}
, 			{
				"patchline" : 				{
					"destination" : [ "obj-208", 0 ],
					"midpoints" : [ 15.833495999999968, 480.75, 1082.000000000000227, 480.75 ],
					"order" : 0,
					"source" : [ "obj-145", 0 ]
				}

			}
, 			{
				"patchline" : 				{
					"destination" : [ "obj-164", 0 ],
					"midpoints" : [ 74.5, 136.75, 113.5, 136.75 ],
					"order" : 0,
					"source" : [ "obj-154", 0 ]
				}

			}
, 			{
				"patchline" : 				{
					"destination" : [ "obj-165", 0 ],
					"midpoints" : [ 74.5, 143.25, 74.5, 143.25 ],
					"order" : 1,
					"source" : [ "obj-154", 0 ]
				}

			}
, 			{
				"patchline" : 				{
					"destination" : [ "obj-166", 0 ],
					"midpoints" : [ 74.5, 135.75, 40.833495999999997, 135.75 ],
					"order" : 2,
					"source" : [ "obj-154", 0 ]
				}

			}
, 			{
				"patchline" : 				{
					"destination" : [ "obj-156", 0 ],
					"midpoints" : [ 24.416504000000259, 678.5, 187.750000000000227, 678.5 ],
					"order" : 0,
					"source" : [ "obj-155", 0 ]
				}

			}
, 			{
				"patchline" : 				{
					"destination" : [ "obj-158", 0 ],
					"order" : 1,
					"source" : [ "obj-155", 0 ]
				}

			}
, 			{
				"patchline" : 				{
					"destination" : [ "obj-167", 3 ],
					"midpoints" : [ 187.750000000000227, 811.5, 679.0, 811.5 ],
					"order" : 0,
					"source" : [ "obj-156", 0 ]
				}

			}
, 			{
				"patchline" : 				{
					"destination" : [ "obj-168", 3 ],
					"midpoints" : [ 187.750000000000227, 797.0, 401.0, 797.0 ],
					"order" : 1,
					"source" : [ "obj-156", 0 ]
				}

			}
, 			{
				"patchline" : 				{
					"destination" : [ "obj-169", 3 ],
					"midpoints" : [ 187.750000000000227, 796.0, 161.5, 796.0 ],
					"order" : 2,
					"source" : [ "obj-156", 0 ]
				}

			}
, 			{
				"patchline" : 				{
					"destination" : [ "obj-167", 1 ],
					"midpoints" : [ 24.416504000000259, 781.5, 658.0, 781.5 ],
					"order" : 0,
					"source" : [ "obj-158", 0 ]
				}

			}
, 			{
				"patchline" : 				{
					"destination" : [ "obj-168", 1 ],
					"midpoints" : [ 24.416504000000259, 764.0, 380.0, 764.0 ],
					"order" : 1,
					"source" : [ "obj-158", 0 ]
				}

			}
, 			{
				"patchline" : 				{
					"destination" : [ "obj-169", 1 ],
					"midpoints" : [ 24.416504000000259, 749.0, 140.833333333333343, 749.0 ],
					"order" : 2,
					"source" : [ "obj-158", 0 ]
				}

			}
, 			{
				"patchline" : 				{
					"destination" : [ "obj-142", 1 ],
					"order" : 0,
					"source" : [ "obj-163", 0 ]
				}

			}
, 			{
				"patchline" : 				{
					"destination" : [ "obj-142", 0 ],
					"order" : 1,
					"source" : [ "obj-163", 0 ]
				}

			}
, 			{
				"patchline" : 				{
					"destination" : [ "obj-167", 2 ],
					"midpoints" : [ 113.5, 226.5, 668.5, 226.5 ],
					"source" : [ "obj-164", 0 ]
				}

			}
, 			{
				"patchline" : 				{
					"destination" : [ "obj-168", 2 ],
					"midpoints" : [ 74.5, 210.0, 390.5, 210.0 ],
					"source" : [ "obj-165", 0 ]
				}

			}
, 			{
				"patchline" : 				{
					"destination" : [ "obj-169", 2 ],
					"midpoints" : [ 40.833495999999997, 194.0, 151.166666666666657, 194.0 ],
					"source" : [ "obj-166", 0 ]
				}

			}
, 			{
				"patchline" : 				{
					"destination" : [ "obj-163", 0 ],
					"midpoints" : [ 647.5, 886.5, 256.0, 886.5 ],
					"source" : [ "obj-167", 0 ]
				}

			}
, 			{
				"patchline" : 				{
					"destination" : [ "obj-163", 0 ],
					"midpoints" : [ 369.5, 871.0, 256.0, 871.0 ],
					"source" : [ "obj-168", 0 ]
				}

			}
, 			{
				"patchline" : 				{
					"destination" : [ "obj-163", 0 ],
					"midpoints" : [ 130.5, 858.0, 256.0, 858.0 ],
					"source" : [ "obj-169", 0 ]
				}

			}
, 			{
				"patchline" : 				{
					"destination" : [ "obj-541", 0 ],
					"midpoints" : [ 643.583496000000196, 137.25, 682.583496000000196, 137.25 ],
					"order" : 0,
					"source" : [ "obj-18", 0 ]
				}

			}
, 			{
				"patchline" : 				{
					"destination" : [ "obj-542", 0 ],
					"order" : 1,
					"source" : [ "obj-18", 0 ]
				}

			}
, 			{
				"patchline" : 				{
					"destination" : [ "obj-543", 0 ],
					"midpoints" : [ 643.583496000000196, 137.25, 609.666992000000164, 137.25 ],
					"order" : 2,
					"source" : [ "obj-18", 0 ]
				}

			}
, 			{
				"patchline" : 				{
					"destination" : [ "obj-507", 0 ],
					"midpoints" : [ 780.000000000000227, 137.75, 813.000000000000227, 137.75 ],
					"order" : 0,
					"source" : [ "obj-19", 0 ]
				}

			}
, 			{
				"patchline" : 				{
					"destination" : [ "obj-508", 0 ],
					"order" : 1,
					"source" : [ "obj-19", 0 ]
				}

			}
, 			{
				"patchline" : 				{
					"destination" : [ "obj-509", 0 ],
					"midpoints" : [ 780.000000000000227, 136.75, 747.000000000000227, 136.75 ],
					"order" : 2,
					"source" : [ "obj-19", 0 ]
				}

			}
, 			{
				"patchline" : 				{
					"destination" : [ "obj-255", 2 ],
					"midpoints" : [ 837.833495999999968, 662.5, 837.5, 662.5 ],
					"source" : [ "obj-197", 0 ]
				}

			}
, 			{
				"patchline" : 				{
					"destination" : [ "obj-169", 2 ],
					"midpoints" : [ 202.833496000000196, 241.25, 151.166666666666657, 241.25 ],
					"source" : [ "obj-2", 0 ]
				}

			}
, 			{
				"patchline" : 				{
					"destination" : [ "obj-473", 0 ],
					"midpoints" : [ 913.833495999999968, 137.75, 946.833495999999968, 137.75 ],
					"order" : 0,
					"source" : [ "obj-20", 0 ]
				}

			}
, 			{
				"patchline" : 				{
					"destination" : [ "obj-474", 0 ],
					"order" : 1,
					"source" : [ "obj-20", 0 ]
				}

			}
, 			{
				"patchline" : 				{
					"destination" : [ "obj-475", 0 ],
					"midpoints" : [ 913.833495999999968, 137.75, 879.333495999999968, 137.75 ],
					"order" : 2,
					"source" : [ "obj-20", 0 ]
				}

			}
, 			{
				"patchline" : 				{
					"destination" : [ "obj-213", 0 ],
					"source" : [ "obj-207", 0 ]
				}

			}
, 			{
				"patchline" : 				{
					"destination" : [ "obj-215", 3 ],
					"midpoints" : [ 1082.000000000000227, 915.5, 1027.416748000000098, 915.5, 1027.416748000000098, 795.5, 973.833495999999968, 795.5 ],
					"source" : [ "obj-208", 0 ]
				}

			}
, 			{
				"patchline" : 				{
					"destination" : [ "obj-439", 0 ],
					"midpoints" : [ 1048.0, 135.75, 1086.0, 135.75 ],
					"order" : 0,
					"source" : [ "obj-21", 0 ]
				}

			}
, 			{
				"patchline" : 				{
					"destination" : [ "obj-440", 0 ],
					"order" : 1,
					"source" : [ "obj-21", 0 ]
				}

			}
, 			{
				"patchline" : 				{
					"destination" : [ "obj-441", 0 ],
					"midpoints" : [ 1048.0, 134.75, 1015.0, 134.75 ],
					"order" : 2,
					"source" : [ "obj-21", 0 ]
				}

			}
, 			{
				"patchline" : 				{
					"destination" : [ "obj-224", 0 ],
					"source" : [ "obj-210", 0 ]
				}

			}
, 			{
				"patchline" : 				{
					"destination" : [ "obj-253", 0 ],
					"midpoints" : [ 707.5, 612.5, 618.5, 612.5 ],
					"order" : 1,
					"source" : [ "obj-212", 0 ]
				}

			}
, 			{
				"patchline" : 				{
					"destination" : [ "obj-254", 0 ],
					"midpoints" : [ 707.5, 611.5, 788.5, 611.5 ],
					"order" : 0,
					"source" : [ "obj-212", 0 ]
				}

			}
, 			{
				"patchline" : 				{
					"destination" : [ "obj-215", 0 ],
					"source" : [ "obj-213", 0 ]
				}

			}
, 			{
				"patchline" : 				{
					"destination" : [ "obj-252", 0 ],
					"source" : [ "obj-214", 0 ]
				}

			}
, 			{
				"patchline" : 				{
					"destination" : [ "obj-211", 0 ],
					"midpoints" : [ 942.333495999999968, 856.5, 1010.333495999999968, 856.5 ],
					"order" : 0,
					"source" : [ "obj-215", 0 ]
				}

			}
, 			{
				"patchline" : 				{
					"destination" : [ "obj-214", 0 ],
					"order" : 1,
					"source" : [ "obj-215", 0 ]
				}

			}
, 			{
				"patchline" : 				{
					"destination" : [ "obj-207", 0 ],
					"order" : 1,
					"source" : [ "obj-216", 0 ]
				}

			}
, 			{
				"patchline" : 				{
					"destination" : [ "obj-209", 0 ],
					"midpoints" : [ 942.333495999999968, 717.5, 1051.000000000000227, 717.5 ],
					"order" : 0,
					"source" : [ "obj-216", 0 ]
				}

			}
, 			{
				"patchline" : 				{
					"destination" : [ "obj-216", 0 ],
					"source" : [ "obj-224", 0 ]
				}

			}
, 			{
				"patchline" : 				{
					"destination" : [ "obj-31", 0 ],
					"source" : [ "obj-24", 0 ]
				}

			}
, 			{
				"patchline" : 				{
					"destination" : [ "obj-255", 0 ],
					"midpoints" : [ 942.333495999999968, 960.5, 875.916747999999984, 960.5, 875.916747999999984, 675.5, 707.5, 675.5 ],
					"source" : [ "obj-252", 0 ]
				}

			}
, 			{
				"patchline" : 				{
					"destination" : [ "obj-255", 0 ],
					"midpoints" : [ 618.5, 662.25, 707.5, 662.25 ],
					"source" : [ "obj-253", 0 ]
				}

			}
, 			{
				"patchline" : 				{
					"destination" : [ "obj-255", 0 ],
					"midpoints" : [ 788.5, 661.25, 707.5, 661.25 ],
					"source" : [ "obj-254", 0 ]
				}

			}
, 			{
				"patchline" : 				{
					"destination" : [ "obj-167", 0 ],
					"midpoints" : [ 707.5, 764.0, 647.5, 764.0 ],
					"order" : 0,
					"source" : [ "obj-255", 0 ]
				}

			}
, 			{
				"patchline" : 				{
					"destination" : [ "obj-168", 0 ],
					"midpoints" : [ 707.5, 749.0, 369.5, 749.0 ],
					"order" : 1,
					"source" : [ "obj-255", 0 ]
				}

			}
, 			{
				"patchline" : 				{
					"destination" : [ "obj-169", 0 ],
					"midpoints" : [ 707.5, 734.0, 130.5, 734.0 ],
					"order" : 2,
					"source" : [ "obj-255", 0 ]
				}

			}
, 			{
				"patchline" : 				{
					"destination" : [ "obj-210", 0 ],
					"midpoints" : [ 837.5, 977.5, 913.416747999999984, 977.5, 913.416747999999984, 584.0, 942.333495999999968, 584.0 ],
					"source" : [ "obj-255", 1 ]
				}

			}
, 			{
				"patchline" : 				{
					"destination" : [ "obj-29", 0 ],
					"source" : [ "obj-28", 0 ]
				}

			}
, 			{
				"patchline" : 				{
					"destination" : [ "obj-31", 0 ],
					"midpoints" : [ 426.0, 1093.0, 310.0, 1093.0 ],
					"source" : [ "obj-29", 0 ]
				}

			}
, 			{
				"patchline" : 				{
					"destination" : [ "obj-168", 2 ],
					"midpoints" : [ 235.833496000000196, 240.25, 390.5, 240.25 ],
					"source" : [ "obj-3", 0 ]
				}

			}
, 			{
				"patchline" : 				{
					"destination" : [ "obj-208", 0 ],
					"midpoints" : [ 450.666992000000391, 526.0, 1082.000000000000227, 526.0 ],
					"order" : 0,
					"source" : [ "obj-364", 0 ]
				}

			}
, 			{
				"patchline" : 				{
					"destination" : [ "obj-7", 0 ],
					"midpoints" : [ 450.666992000000391, 76.5, 505.500488000000132, 76.5 ],
					"order" : 1,
					"source" : [ "obj-364", 0 ]
				}

			}
, 			{
				"patchline" : 				{
					"destination" : [ "obj-167", 2 ],
					"midpoints" : [ 544.500488000000132, 286.5, 668.5, 286.5 ],
					"source" : [ "obj-373", 0 ]
				}

			}
, 			{
				"patchline" : 				{
					"destination" : [ "obj-168", 2 ],
					"midpoints" : [ 505.500488000000132, 299.0, 390.5, 299.0 ],
					"source" : [ "obj-374", 0 ]
				}

			}
, 			{
				"patchline" : 				{
					"destination" : [ "obj-169", 2 ],
					"midpoints" : [ 472.500488000000132, 286.0, 151.166666666666657, 286.0 ],
					"source" : [ "obj-375", 0 ]
				}

			}
, 			{
				"patchline" : 				{
					"destination" : [ "obj-14", 0 ],
					"midpoints" : [ 316.833496000000196, 75.75, 370.833496000000196, 75.75 ],
					"order" : 1,
					"source" : [ "obj-398", 0 ]
				}

			}
, 			{
				"patchline" : 				{
					"destination" : [ "obj-208", 0 ],
					"midpoints" : [ 316.833496000000196, 511.0, 1082.000000000000227, 511.0 ],
					"order" : 0,
					"source" : [ "obj-398", 0 ]
				}

			}
, 			{
				"patchline" : 				{
					"destination" : [ "obj-167", 2 ],
					"midpoints" : [ 274.833496000000196, 255.75, 668.5, 255.75 ],
					"source" : [ "obj-4", 0 ]
				}

			}
, 			{
				"patchline" : 				{
					"destination" : [ "obj-167", 2 ],
					"midpoints" : [ 409.333496000000196, 271.5, 668.5, 271.5 ],
					"source" : [ "obj-407", 0 ]
				}

			}
, 			{
				"patchline" : 				{
					"destination" : [ "obj-168", 2 ],
					"midpoints" : [ 370.333496000000196, 273.25, 390.5, 273.25 ],
					"source" : [ "obj-408", 0 ]
				}

			}
, 			{
				"patchline" : 				{
					"destination" : [ "obj-169", 2 ],
					"midpoints" : [ 338.166992000000164, 271.0, 151.166666666666657, 271.0 ],
					"source" : [ "obj-409", 0 ]
				}

			}
, 			{
				"patchline" : 				{
					"destination" : [ "obj-208", 0 ],
					"midpoints" : [ 991.5, 585.75, 1082.000000000000227, 585.75 ],
					"order" : 0,
					"source" : [ "obj-430", 0 ]
				}

			}
, 			{
				"patchline" : 				{
					"destination" : [ "obj-21", 0 ],
					"order" : 1,
					"source" : [ "obj-430", 0 ]
				}

			}
, 			{
				"patchline" : 				{
					"destination" : [ "obj-167", 2 ],
					"midpoints" : [ 1086.0, 466.0, 668.5, 466.0 ],
					"source" : [ "obj-439", 0 ]
				}

			}
, 			{
				"patchline" : 				{
					"destination" : [ "obj-168", 2 ],
					"midpoints" : [ 1048.0, 451.75, 390.5, 451.75 ],
					"source" : [ "obj-440", 0 ]
				}

			}
, 			{
				"patchline" : 				{
					"destination" : [ "obj-169", 2 ],
					"midpoints" : [ 1015.0, 435.0, 151.166666666666657, 435.0 ],
					"source" : [ "obj-441", 0 ]
				}

			}
, 			{
				"patchline" : 				{
					"destination" : [ "obj-20", 0 ],
					"midpoints" : [ 855.333495999999968, 76.5, 913.833495999999968, 76.5 ],
					"order" : 1,
					"source" : [ "obj-464", 0 ]
				}

			}
, 			{
				"patchline" : 				{
					"destination" : [ "obj-208", 0 ],
					"midpoints" : [ 855.333495999999968, 571.25, 1082.000000000000227, 571.25 ],
					"order" : 0,
					"source" : [ "obj-464", 0 ]
				}

			}
, 			{
				"patchline" : 				{
					"destination" : [ "obj-167", 2 ],
					"midpoints" : [ 946.833495999999968, 420.25, 668.5, 420.25 ],
					"source" : [ "obj-473", 0 ]
				}

			}
, 			{
				"patchline" : 				{
					"destination" : [ "obj-168", 2 ],
					"midpoints" : [ 913.833495999999968, 406.75, 390.5, 406.75 ],
					"source" : [ "obj-474", 0 ]
				}

			}
, 			{
				"patchline" : 				{
					"destination" : [ "obj-169", 2 ],
					"midpoints" : [ 879.333495999999968, 391.75, 151.166666666666657, 391.75 ],
					"source" : [ "obj-475", 0 ]
				}

			}
, 			{
				"patchline" : 				{
					"destination" : [ "obj-19", 0 ],
					"midpoints" : [ 721.500000000000227, 76.5, 780.000000000000227, 76.5 ],
					"order" : 1,
					"source" : [ "obj-498", 0 ]
				}

			}
, 			{
				"patchline" : 				{
					"destination" : [ "obj-208", 0 ],
					"midpoints" : [ 721.500000000000227, 557.25, 1082.000000000000227, 557.25 ],
					"order" : 0,
					"source" : [ "obj-498", 0 ]
				}

			}
, 			{
				"patchline" : 				{
					"destination" : [ "obj-208", 0 ],
					"midpoints" : [ 168.333496000000196, 495.25, 1082.000000000000227, 495.25 ],
					"order" : 0,
					"source" : [ "obj-5", 0 ]
				}

			}
, 			{
				"patchline" : 				{
					"destination" : [ "obj-6", 0 ],
					"midpoints" : [ 168.333496000000196, 75.25, 235.833496000000196, 75.25 ],
					"order" : 1,
					"source" : [ "obj-5", 0 ]
				}

			}
, 			{
				"patchline" : 				{
					"destination" : [ "obj-167", 2 ],
					"midpoints" : [ 813.000000000000227, 375.75, 668.5, 375.75 ],
					"source" : [ "obj-507", 0 ]
				}

			}
, 			{
				"patchline" : 				{
					"destination" : [ "obj-168", 2 ],
					"midpoints" : [ 780.000000000000227, 360.25, 390.5, 360.25 ],
					"source" : [ "obj-508", 0 ]
				}

			}
, 			{
				"patchline" : 				{
					"destination" : [ "obj-169", 2 ],
					"midpoints" : [ 747.000000000000227, 346.25, 151.166666666666657, 346.25 ],
					"source" : [ "obj-509", 0 ]
				}

			}
, 			{
				"patchline" : 				{
					"destination" : [ "obj-10", 0 ],
					"source" : [ "obj-52", 0 ]
				}

			}
, 			{
				"patchline" : 				{
					"destination" : [ "obj-24", 0 ],
					"source" : [ "obj-53", 0 ]
				}

			}
, 			{
				"patchline" : 				{
					"destination" : [ "obj-18", 0 ],
					"midpoints" : [ 584.333496000000196, 75.0, 643.583496000000196, 75.0 ],
					"order" : 1,
					"source" : [ "obj-532", 0 ]
				}

			}
, 			{
				"patchline" : 				{
					"destination" : [ "obj-208", 0 ],
					"midpoints" : [ 584.333496000000196, 542.75, 1082.000000000000227, 542.75 ],
					"order" : 0,
					"source" : [ "obj-532", 0 ]
				}

			}
, 			{
				"patchline" : 				{
					"destination" : [ "obj-167", 2 ],
					"midpoints" : [ 682.583496000000196, 209.75, 668.5, 209.75 ],
					"source" : [ "obj-541", 0 ]
				}

			}
, 			{
				"patchline" : 				{
					"destination" : [ "obj-168", 2 ],
					"midpoints" : [ 643.583496000000196, 331.25, 390.5, 331.25 ],
					"source" : [ "obj-542", 0 ]
				}

			}
, 			{
				"patchline" : 				{
					"destination" : [ "obj-169", 2 ],
					"midpoints" : [ 609.666992000000164, 315.75, 151.166666666666657, 315.75 ],
					"source" : [ "obj-543", 0 ]
				}

			}
, 			{
				"patchline" : 				{
					"destination" : [ "obj-2", 0 ],
					"midpoints" : [ 235.833496000000196, 132.5, 202.833496000000196, 132.5 ],
					"order" : 2,
					"source" : [ "obj-6", 0 ]
				}

			}
, 			{
				"patchline" : 				{
					"destination" : [ "obj-3", 0 ],
					"midpoints" : [ 235.833496000000196, 132.5, 235.833496000000196, 132.5 ],
					"order" : 1,
					"source" : [ "obj-6", 0 ]
				}

			}
, 			{
				"patchline" : 				{
					"destination" : [ "obj-4", 0 ],
					"midpoints" : [ 235.833496000000196, 132.5, 274.833496000000196, 132.5 ],
					"order" : 0,
					"source" : [ "obj-6", 0 ]
				}

			}
, 			{
				"patchline" : 				{
					"destination" : [ "obj-627", 0 ],
					"source" : [ "obj-625", 0 ]
				}

			}
, 			{
				"patchline" : 				{
					"destination" : [ "obj-626", 0 ],
					"source" : [ "obj-627", 0 ]
				}

			}
, 			{
				"patchline" : 				{
					"destination" : [ "obj-373", 0 ],
					"midpoints" : [ 505.500488000000132, 136.25, 544.500488000000132, 136.25 ],
					"order" : 0,
					"source" : [ "obj-7", 0 ]
				}

			}
, 			{
				"patchline" : 				{
					"destination" : [ "obj-374", 0 ],
					"midpoints" : [ 505.500488000000132, 143.25, 505.500488000000132, 143.25 ],
					"order" : 1,
					"source" : [ "obj-7", 0 ]
				}

			}
, 			{
				"patchline" : 				{
					"destination" : [ "obj-375", 0 ],
					"midpoints" : [ 505.500488000000132, 136.25, 472.500488000000132, 136.25 ],
					"order" : 2,
					"source" : [ "obj-7", 0 ]
				}

			}
, 			{
				"patchline" : 				{
					"destination" : [ "obj-846", 0 ],
					"source" : [ "obj-847", 0 ]
				}

			}
 ],
		"parameters" : 		{
			"obj-142" : [ "live.gain~[3]", "live.gain~", 0 ],
			"parameterbanks" : 			{

			}
,
			"inherited_shortname" : 1
		}
,
		"dependency_cache" : [  ],
		"autosave" : 0
	}

}
